<svg width="180" height="180" viewBox="0 0 180 180" fill="none" xmlns="http://www.w3.org/2000/svg">
<path d="M111.517 25.3406L123.695 51.1031L108.283 57.9937L96.2734 32.5687C90.9578 21.3469 77.5421 16.5375 66.3203 21.8531C55.0984 27.1406 50.289 40.5844 55.5765 51.8062L70.989 84.375H53.439C53.0734 84.375 52.7078 84.4031 52.3421 84.4312L40.3328 59.0062C31.0515 39.375 39.4609 15.8625 59.0921 6.58124C78.7234 -2.70001 102.236 5.70937 111.517 25.3406Z" fill="#CACAE5"/>
<path d="M87.1903 14.0625C73.1278 8.43749 59.0653 14.0625 50.6278 25.3125C42.1903 39.375 53.4403 59.0625 50.6278 73.125C50.6278 74.4778 49.9669 75.825 48.8616 77.0597L52.3434 84.4312C52.7091 84.4031 53.0747 84.375 53.4403 84.375H70.9903L55.5778 51.8062C50.2903 40.5844 55.0997 27.1406 66.3216 21.8531C77.5434 16.5375 90.9591 21.3469 96.2747 32.5687L108.284 57.9937L116.972 54.1097C109.347 36.6666 101.253 19.6875 87.1903 14.0625Z" fill="#7876AB"/>
<path d="M99.5627 148.162C100.041 150.356 98.3815 152.437 96.1315 152.437H83.869C81.619 152.437 79.9596 150.356 80.4377 148.162L85.219 126.703C81.3377 124.678 78.8346 120.403 79.6502 115.594C80.0195 113.479 81.0252 111.528 82.5328 110C84.0405 108.472 85.9784 107.441 88.0877 107.044C89.6057 106.765 91.1665 106.823 92.6596 107.214C94.1526 107.605 95.5414 108.32 96.7275 109.307C97.9137 110.295 98.8682 111.531 99.5234 112.928C100.179 114.326 100.518 115.85 100.519 117.394C100.519 121.444 98.1846 124.931 94.7815 126.703L99.5627 148.162Z" fill="#5E5E84"/>
<path d="M70.9875 84.375H126.563C132.778 84.375 137.813 89.4094 137.813 95.625V165.938C137.813 172.153 132.778 177.188 126.563 177.188H53.4375C47.2219 177.188 42.1875 172.153 42.1875 165.938V95.625C42.1818 92.8299 43.2195 90.1332 45.0974 88.0628C46.9753 85.9925 49.5582 84.6975 52.3407 84.4313C52.7063 84.4031 53.0719 84.375 53.4375 84.375H70.9875ZM96.1313 152.438C98.3813 152.438 100.041 150.356 99.5625 148.163L94.7813 126.703C98.1844 124.931 100.519 121.444 100.519 117.394C100.519 110.953 94.725 105.863 88.0875 107.044C85.9782 107.441 84.0403 108.472 82.5326 110C81.025 111.528 80.0193 113.479 79.65 115.594C78.8344 120.403 81.3375 124.678 85.2188 126.703L80.4375 148.163C79.9594 150.356 81.6188 152.438 83.8688 152.438H96.1313Z" fill="#FFC32C"/>
<path d="M137.814 95.625V165.938C137.814 172.153 132.78 177.188 126.564 177.188H53.4391C48.2078 177.188 43.7922 173.616 42.5547 168.75H115.314C121.53 168.75 126.564 163.716 126.564 157.5V87.1875C126.564 86.2031 126.452 85.275 126.198 84.375H126.564C132.78 84.375 137.814 89.4094 137.814 95.625Z" fill="#FFA300"/>
<path d="M50.625 101.97V96.3619C50.625 94.4016 52.2141 92.8125 54.1744 92.8125H60.7162C64.0125 92.8125 65.5284 96.9131 63.0253 99.0563L56.4834 104.664C54.1828 106.639 50.625 105.002 50.625 101.97Z" fill="#FFEDC5"/>
<path d="M129.375 42.1875C128.629 42.1875 127.914 41.8912 127.386 41.3637C126.859 40.8363 126.562 40.1209 126.562 39.375V25.3125C126.562 24.5666 126.859 23.8512 127.386 23.3238C127.914 22.7963 128.629 22.5 129.375 22.5C130.121 22.5 130.836 22.7963 131.364 23.3238C131.891 23.8512 132.188 24.5666 132.188 25.3125V39.375C132.188 40.1209 131.891 40.8363 131.364 41.3637C130.836 41.8912 130.121 42.1875 129.375 42.1875ZM137.812 45C137.256 45.0012 136.711 44.837 136.248 44.5282C135.785 44.2194 135.423 43.7799 135.21 43.2655C134.997 42.7511 134.942 42.185 135.051 41.639C135.16 41.0931 135.429 40.5919 135.824 40.1991L147.074 28.9491C147.601 28.4217 148.317 28.1254 149.062 28.1254C149.808 28.1254 150.524 28.4217 151.051 28.9491C151.578 29.4764 151.875 30.1917 151.875 30.9375C151.875 31.6833 151.578 32.3986 151.051 32.9259L139.801 44.1759C139.274 44.7034 138.558 44.9998 137.812 45ZM154.688 53.4375H143.438C142.692 53.4375 141.976 53.1412 141.449 52.6137C140.921 52.0863 140.625 51.3709 140.625 50.625C140.625 49.8791 140.921 49.1637 141.449 48.6363C141.976 48.1088 142.692 47.8125 143.438 47.8125H154.688C155.433 47.8125 156.149 48.1088 156.676 48.6363C157.204 49.1637 157.5 49.8791 157.5 50.625C157.5 51.3709 157.204 52.0863 156.676 52.6137C156.149 53.1412 155.433 53.4375 154.688 53.4375Z" fill="#FFC32C"/>
</svg>
